<svg id="Layer_1" data-name="Layer 1" xmlns="http://www.w3.org/2000/svg" viewBox="0 0 97.81 60.76"><defs><style>.cls-1{fill:#263575;}.cls-1,.cls-2{fill-rule:evenodd;}.cls-2,.cls-4{fill:#4099d4;}.cls-3{fill:#fff;}.cls-5{fill:#231f20;}</style></defs><title>Untitled-1</title><path class="cls-1" d="M47.14,28.43c0,0.07,0,.14,0,0.21q0,9.65,0,19.31A17.46,17.46,0,0,1,47.06,50a10.52,10.52,0,0,1-1.17,3.74,12.87,12.87,0,0,1-5.59,5.45,10.55,10.55,0,0,1-3.71,1.07,12.45,12.45,0,0,1-5.27-.54,11.41,11.41,0,0,1-4.61-3,12.24,12.24,0,0,1-2.61-4,11.77,11.77,0,0,1-.81-3.68,12.78,12.78,0,0,1,.55-4.73,12.77,12.77,0,0,1,6.73-7.46A10.86,10.86,0,0,1,34.32,36a12,12,0,0,1,5.17.8,11,11,0,0,1,3.1,1.86,0.28,0.28,0,0,1,.11.19c0,1.42,0,2.84,0,4.26,0,0,0,0,0,.08l-0.09-.13a9.21,9.21,0,0,0-3.07-3,7.82,7.82,0,0,0-3.47-1.06,9.11,9.11,0,0,0-8.77,13.15,8.73,8.73,0,0,0,8.8,5.12,8.12,8.12,0,0,0,5.52-2.81,9.27,9.27,0,0,0,2-3.25A8.21,8.21,0,0,0,44,48.91c0-.35,0-0.71,0-1.06V28.43h3.08Z" transform="translate(-10.04 -12.88)"/><path class="cls-1" d="M72.83,48.5a9.89,9.89,0,0,1-.25,2.22,12.28,12.28,0,0,1-9.81,9.44,13.31,13.31,0,0,1-2,.19,11.86,11.86,0,0,1-5.63-1.24,12.29,12.29,0,0,1-3-2.08,9.67,9.67,0,0,1-2.05-2.73,7.67,7.67,0,0,1-.78-2.65,8.07,8.07,0,0,1,.34-3.15,12.7,12.7,0,0,1,1.72-3.61A9.62,9.62,0,0,1,53,43.09a0.14,0.14,0,0,1,.09,0L53,43.22A8.81,8.81,0,0,0,51.64,47,8.62,8.62,0,0,0,53.1,53.1a9.66,9.66,0,0,0,6.14,4.06,11.92,11.92,0,0,0,9.05-2.05,12.42,12.42,0,0,0,3.29-3.79,13.64,13.64,0,0,0,1.22-2.76A0.17,0.17,0,0,1,72.83,48.5Z" transform="translate(-10.04 -12.88)"/><path class="cls-2" d="M48.84,47.6a9.67,9.67,0,0,1,.25-2.22,12.28,12.28,0,0,1,9.81-9.44,13.21,13.21,0,0,1,2-.18A11.91,11.91,0,0,1,66.49,37a12.09,12.09,0,0,1,3,2.08,9.47,9.47,0,0,1,2,2.73,7.59,7.59,0,0,1,.78,2.65A8,8,0,0,1,72,47.6a12.48,12.48,0,0,1-1.72,3.6A9.38,9.38,0,0,1,68.65,53a0.14,0.14,0,0,1-.09,0l0.11-.17A8.79,8.79,0,0,0,70,49.12,8.62,8.62,0,0,0,68.57,43a9.65,9.65,0,0,0-6.14-4.06A11.87,11.87,0,0,0,53.37,41a12.3,12.3,0,0,0-3.29,3.78,13.73,13.73,0,0,0-1.22,2.76A0.43,0.43,0,0,1,48.84,47.6Z" transform="translate(-10.04 -12.88)"/><path class="cls-1" d="M81.88,73.65a1.57,1.57,0,0,1-.23-0.33c-0.28-.66-0.55-1.32-0.83-2a0.24,0.24,0,0,0-.1-0.13c-0.13.8-.26,1.59-0.39,2.38H79.79c0.05-.3.11-0.58,0.17-0.87,0.14-.75.29-1.51,0.44-2.25a1,1,0,0,1,.14-0.34,0.19,0.19,0,0,1,.33,0,1.55,1.55,0,0,1,.17.32c0.28,0.69.56,1.38,0.84,2.07a1.1,1.1,0,0,1,.07.16L82,72.51l0.87-2.11A1.19,1.19,0,0,1,83,70.12a0.19,0.19,0,0,1,.33,0,0.87,0.87,0,0,1,.13.3q0.3,1.52.58,3a0.71,0.71,0,0,1,0,.14H83.57c-0.13-.8-0.27-1.59-0.4-2.44l-0.09.18c-0.28.68-.55,1.35-0.84,2a1.33,1.33,0,0,1-.23.3H81.88Z" transform="translate(-10.04 -12.88)"/><path class="cls-1" d="M87.76,73.65a2,2,0,0,1-.23-0.33c-0.28-.66-0.55-1.32-0.82-2a0.27,0.27,0,0,0-.1-0.13c-0.13.8-.26,1.59-0.39,2.38H85.67l0.17-.87c0.14-.75.29-1.51,0.44-2.25a1,1,0,0,1,.14-0.34,0.19,0.19,0,0,1,.34,0,1.56,1.56,0,0,1,.17.32l0.84,2.07s0,0.09.07,0.16l0.08-.16,0.86-2.11a1.35,1.35,0,0,1,.15-0.27,0.19,0.19,0,0,1,.33,0,0.8,0.8,0,0,1,.13.3c0.2,1,.39,2,0.59,3,0,0,0,.08,0,0.14H89.45c-0.13-.8-0.27-1.59-0.4-2.44L89,71.32c-0.28.68-.55,1.35-0.84,2a1.57,1.57,0,0,1-.22.3H87.76Z" transform="translate(-10.04 -12.88)"/><path class="cls-1" d="M77.74,70.09a4.64,4.64,0,0,1,.56,0,1.27,1.27,0,0,1,1.06.86,2.19,2.19,0,0,1,0,1.8,1.3,1.3,0,0,1-1.3.83H77.34a1.24,1.24,0,0,1-1-.49A1.81,1.81,0,0,1,76,72.17a2.21,2.21,0,0,1,.16-1.29,1.3,1.3,0,0,1,1.25-.79h0.37Zm0,2.87H78.1a0.87,0.87,0,0,0,.82-0.52,1.41,1.41,0,0,0,.1-0.94,0.93,0.93,0,0,0-1-.81H77.37a0.84,0.84,0,0,0-.81.5,1.38,1.38,0,0,0,0,1.2,0.86,0.86,0,0,0,.86.56h0.35Z" transform="translate(-10.04 -12.88)"/><path class="cls-1" d="M75.51,73v0.58l0,0c-0.55,0-1.11,0-1.66,0a1.16,1.16,0,0,1-1-.63,2.14,2.14,0,0,1-.09-2.13A1.25,1.25,0,0,1,74,70.09h1.52V70.7H74a0.92,0.92,0,0,0-1,.76,1.41,1.41,0,0,0,.06,1A0.86,0.86,0,0,0,74,73h1.48Z" transform="translate(-10.04 -12.88)"/><path class="cls-1" d="M92,71.81l0.43-.75,0.5-.87a0.16,0.16,0,0,1,.16-0.1c0.17,0,.33,0,0.51,0l-0.08.15-1.2,2a0.64,0.64,0,0,0-.1.36c0,0.32,0,.63,0,1H91.74c0-.17,0-0.33,0-0.5a1.69,1.69,0,0,0-.33-1.21c-0.36-.52-0.66-1.07-1-1.62l-0.09-.16c0.19,0,.37,0,0.55,0a0.2,0.2,0,0,1,.13.1l0.9,1.47Z" transform="translate(-10.04 -12.88)"/><path class="cls-1" d="M71.92,73.3a0.27,0.27,0,0,1-.24.31,0.32,0.32,0,0,1,0-.62A0.27,0.27,0,0,1,71.92,73.3Z" transform="translate(-10.04 -12.88)"/><path class="cls-1" d="M85.14,73.3a0.25,0.25,0,1,1-.25-0.3A0.27,0.27,0,0,1,85.14,73.3Z" transform="translate(-10.04 -12.88)"/><ellipse class="cls-3" cx="60.59" cy="53.51" rx="0.49" ry="0.5" transform="translate(-10.83 -11.98) rotate(-0.85)"/><path class="cls-2" d="M91.42,54.6a7.82,7.82,0,0,1-4.67,2A8.94,8.94,0,0,1,83,56.11,9.07,9.07,0,0,1,78,51.45,9,9,0,0,1,86.73,38.3a7.89,7.89,0,0,1,3.47,1.06,10.16,10.16,0,0,0,2.3.93,1.4,1.4,0,0,1,.88-0.66c0-.5,0-1,0-1.5a0.31,0.31,0,0,0-.11-0.19c-0.25-.21-0.5-0.4-0.76-0.59a10.91,10.91,0,0,0-2.35-1.28,12.1,12.1,0,0,0-5.16-.8,11,11,0,0,0-3.76.89,12.19,12.19,0,0,0-4,2.92,12,12,0,0,0-2.7,4.54A12.73,12.73,0,0,0,74,48.36,11.7,11.7,0,0,0,74.77,52a12.11,12.11,0,0,0,2.61,4A11.42,11.42,0,0,0,82,59a12.42,12.42,0,0,0,5.28.54A10.45,10.45,0,0,0,91,58.46a13.27,13.27,0,0,0,2.36-1.53c0-.66,0-1.32,0-2Z" transform="translate(-10.04 -12.88)"/><path class="cls-2" d="M93.26,37.93s1.63,2.31-.77,2.35" transform="translate(-10.04 -12.88)"/><path class="cls-2" d="M91.42,54.6s3.08-.76,1.92,2.33" transform="translate(-10.04 -12.88)"/><path class="cls-2" d="M59,46.57l2.09,1.76V47.77l1-1.2s1.52-.16,1.2,2.72h-1v2.64H59V49.25H57.9S57.58,46.73,59,46.57Z" transform="translate(-10.04 -12.88)"/><path class="cls-1" d="M65.69,50.52v1.85a2,2,0,0,1-2,2H57.53a2,2,0,0,1-2-1.75,2.27,2.27,0,0,1,0-.35v-7.8a2,2,0,0,1,2.05-2h6.1a2,2,0,0,1,2,2.05c0,1.33,0,2.67,0,4a3.59,3.59,0,0,1-.41,1.72,2,2,0,0,1-1,.92,3.67,3.67,0,0,1-2.58.12,2.1,2.1,0,0,1-1.24-1.07A1,1,0,0,0,60.32,50a1,1,0,0,1-.17-0.22c-0.12-.28-0.21-0.57-0.34-0.85-0.22-.44-0.46-0.87-0.68-1.32a3.52,3.52,0,0,1-.37-1.3,0.45,0.45,0,0,1,.4-0.55,0.19,0.19,0,0,0,.2-0.2,1.32,1.32,0,0,1,.94-1.2,1.23,1.23,0,0,1,1.49.87,1.68,1.68,0,0,1,.06.3,0.16,0.16,0,0,0,.14.17c0.44,0.08.55,0.35,0.45,0.82a6.71,6.71,0,0,1-.8,1.92c-0.1.19-.22,0.37-0.31,0.57a5.57,5.57,0,0,0-.25.69,0.38,0.38,0,0,1-.25.35,1.92,1.92,0,0,0,1.12.9,3,3,0,0,0,2.2-.14,1.71,1.71,0,0,0,1-1.38,3.81,3.81,0,0,0,0-.53q0-1.82,0-3.63a1.67,1.67,0,0,0-1.74-1.74H57.78a1.66,1.66,0,0,0-1.7,1.4,1.6,1.6,0,0,0,0,.32v5.63a1.67,1.67,0,0,0,1.73,1.73H63.4a1.67,1.67,0,0,0,1.7-1.36,0.19,0.19,0,0,1,0-.09ZM59.34,46c-0.27.05-.33,0.14-0.28,0.4a7.84,7.84,0,0,0,.94,2.2,0.4,0.4,0,0,0,.43.23h0.33a0.43,0.43,0,0,0,.42-0.25l0.45-.85a4.35,4.35,0,0,0,.51-1.33,0.93,0.93,0,0,0,0-.26A0.23,0.23,0,0,0,61.9,46c-0.12,0-.09.08-0.11,0.14s-0.06.17-.1,0.25a1.19,1.19,0,0,1-2.08.19A4.1,4.1,0,0,1,59.34,46Zm0.76,7.5a0.49,0.49,0,1,0,1,0A0.49,0.49,0,1,0,60.1,53.52Z" transform="translate(-10.04 -12.88)"/><path class="cls-1" d="M54,67V66h2.24a1,1,0,0,0,1-.53,1.36,1.36,0,0,0-.15-1.4,1,1,0,0,0-.7-0.28H53.65c-0.09,0-.1,0-0.1.12,0,0.38,0,.75,0,1.13,0,1.16,0,2.32,0,3.48,0,0.13,0,.18-0.17.17H52.85a0.1,0.1,0,0,1-.12-0.12c0-.17,0-0.33,0-0.5q0-2.57,0-5.15c0-.13,0-0.17.17-0.17h3.29a2,2,0,0,1,1.64.75,2.07,2.07,0,0,1,.39,1.1A2.46,2.46,0,0,1,58,65.82a1.84,1.84,0,0,1-1,1l-0.1,0,1.41,1.77H57.26A0.24,0.24,0,0,1,57,68.53L55.9,67.09A0.26,0.26,0,0,0,55.67,67H54Z" transform="translate(-10.04 -12.88)"/><path class="cls-1" d="M49.1,62.69a9.08,9.08,0,0,1,1.12.07,2.19,2.19,0,0,1,1.64,1.41,3.77,3.77,0,0,1,.26,1.67,3.26,3.26,0,0,1-.78,2.08,1.93,1.93,0,0,1-1.41.71c-0.56,0-1.13,0-1.69,0a2,2,0,0,1-1.53-.86,3.48,3.48,0,0,1-.66-2.32,3.15,3.15,0,0,1,.49-1.71,2.16,2.16,0,0,1,1.89-1H49.1v0Zm0,1.06H48.45a1.35,1.35,0,0,0-1.19.62A2.41,2.41,0,0,0,47,66.55a1.5,1.5,0,0,0,1.54,1.06c0.39,0,.79,0,1.18,0A1.4,1.4,0,0,0,51,66.87a2.4,2.4,0,0,0,.09-2.18,1.39,1.39,0,0,0-1.17-.93A6.8,6.8,0,0,0,49.09,63.75Z" transform="translate(-10.04 -12.88)"/><path class="cls-1" d="M31.9,62.69a10.2,10.2,0,0,1,1.14.07A2.15,2.15,0,0,1,34.61,64a4,4,0,0,1-.13,3.45A2.21,2.21,0,0,1,33,68.61l-0.19,0c-0.57,0-1.15,0-1.73,0a2,2,0,0,1-1.59-1,3.36,3.36,0,0,1-.6-1.87,3.59,3.59,0,0,1,.31-1.73,2.21,2.21,0,0,1,2.13-1.36H31.9v0Zm0,4.92h0.62a1.41,1.41,0,0,0,1.36-.81,2.41,2.41,0,0,0,.1-2,1.49,1.49,0,0,0-1.53-1.06c-0.39,0-.79,0-1.19,0a1.35,1.35,0,0,0-1.2.66,2.34,2.34,0,0,0-.19,2.24,1.44,1.44,0,0,0,1.49,1h0.54Z" transform="translate(-10.04 -12.88)"/><path class="cls-1" d="M23.27,68.63V62.71h2.6A2.18,2.18,0,0,1,27.93,64a3.58,3.58,0,0,1,.36,1.88,3.46,3.46,0,0,1-.46,1.62,2.19,2.19,0,0,1-1.51,1.13l-0.3,0H23.27Zm0.8-3c0,0.6,0,1.19,0,1.79,0,0.13,0,.16.15,0.16h1.64a1.4,1.4,0,0,0,1.35-.79,2.37,2.37,0,0,0,.08-2.1,1.46,1.46,0,0,0-1.49-1c-0.51,0-1,0-1.54,0-0.19,0-.19,0-0.19.18v1.75Z" transform="translate(-10.04 -12.88)"/><path class="cls-1" d="M40.53,67.61v1H37.94a2.11,2.11,0,0,1-1.85-1,3.56,3.56,0,0,1-.58-2.35A3.12,3.12,0,0,1,36,63.79a2.16,2.16,0,0,1,1.89-1.08h2.67v1H40.37c-0.77,0-1.56,0-2.33,0a1.57,1.57,0,0,0-1.61,1.21,2.4,2.4,0,0,0,.15,1.86,1.42,1.42,0,0,0,1.35.81h2.6Z" transform="translate(-10.04 -12.88)"/><path class="cls-2" d="M76.73,67.6v1H76.56c-0.81,0-1.62,0-2.42,0a2.11,2.11,0,0,1-1.85-1,3.56,3.56,0,0,1-.58-2.34,3.13,3.13,0,0,1,.45-1.52,2.16,2.16,0,0,1,1.9-1.09h2.67v1H76.57c-0.78,0-1.56,0-2.33,0a1.57,1.57,0,0,0-1.61,1.21,2.42,2.42,0,0,0,.15,1.86,1.45,1.45,0,0,0,1.35.82h2.6Z" transform="translate(-10.04 -12.88)"/><path class="cls-1" d="M42.92,68.62V63.74H41.05V63.07c0-.36,0-0.36.35-0.36h4c0.12,0,.17,0,0.16.16s0,0.48,0,.72a1.43,1.43,0,0,1,0,.16H44c-0.26,0-.23,0-0.23.22q0,2.23,0,4.46v0.19H42.92Z" transform="translate(-10.04 -12.88)"/><path class="cls-2" d="M61.89,62.69a10.76,10.76,0,0,1,1.12.07,2.18,2.18,0,0,1,1.64,1.41,3.73,3.73,0,0,1,.26,1.68,3.25,3.25,0,0,1-.77,2.08,1.92,1.92,0,0,1-1.41.71c-0.56,0-1.13,0-1.69,0a2,2,0,0,1-1.54-.86,3.48,3.48,0,0,1-.66-2.32,3.22,3.22,0,0,1,.49-1.71,2.16,2.16,0,0,1,1.9-1h0.66v0Zm0,1.06H61.24a1.36,1.36,0,0,0-1.19.62,2.4,2.4,0,0,0-.24,2.2,1.5,1.5,0,0,0,1.54,1.06c0.39,0,.79,0,1.18,0a1.4,1.4,0,0,0,1.28-.74,2.4,2.4,0,0,0,.09-2.19,1.4,1.4,0,0,0-1.17-.93C62.45,63.73,62.16,63.76,61.88,63.76Z" transform="translate(-10.04 -12.88)"/><path class="cls-4" d="M70.73,67.75c0,0.34-.11.51-0.33,0.51a0.8,0.8,0,0,1-.53-0.32L66.7,64.54v3.67H65.85V63.37a0.55,0.55,0,0,1,.1-0.32,0.3,0.3,0,0,1,.26-0.14,0.71,0.71,0,0,1,.49.27l3.17,3.41V62.91h0.86v4.84Z" transform="translate(-10.04 -12.88)"/><path class="cls-4" d="M84.33,68.57H83.2l-0.85-1.64h-2.4l0.54-1h1.34l-0.88-1.69-2.28,4.34H77.52l2.75-5.29a1.34,1.34,0,0,1,.29-0.38,0.64,0.64,0,0,1,.4-0.2,0.62,0.62,0,0,1,.4.19,1.38,1.38,0,0,1,.29.39Z" transform="translate(-10.04 -12.88)"/><path class="cls-4" d="M88.89,68.57H84.53V62.71h0.88v4.84h3.48v1Z" transform="translate(-10.04 -12.88)"/><path class="cls-4" d="M93.69,68.57H89.33V62.71h0.88v4.84h3.48v1Z" transform="translate(-10.04 -12.88)"/><path class="cls-5" d="M11.18,12.88v8.57H10V12.88h1.14Z" transform="translate(-10.04 -12.88)"/><path class="cls-5" d="M13.89,15.25v1h0a2.15,2.15,0,0,1,2-1.13,2.7,2.7,0,0,1,1,.17,1.68,1.68,0,0,1,.66.47,1.74,1.74,0,0,1,.35.71,3.82,3.82,0,0,1,.1.92v4.08H17v-4.2a1.23,1.23,0,0,0-.34-0.91A1.25,1.25,0,0,0,15.79,16a2.08,2.08,0,0,0-.81.14,1.52,1.52,0,0,0-.57.41,1.76,1.76,0,0,0-.34.62,2.51,2.51,0,0,0-.11.77v3.5h-1v-6.2h1Z" transform="translate(-10.04 -12.88)"/><path class="cls-5" d="M24,15.25v0.84h0a1.52,1.52,0,0,1,.79-0.75A3,3,0,0,1,26,15.1a2.8,2.8,0,0,1,1.25.26,2.56,2.56,0,0,1,.89.71,3.17,3.17,0,0,1,.53,1,4.24,4.24,0,0,1,.18,1.25,4.37,4.37,0,0,1-.17,1.25,2.93,2.93,0,0,1-.53,1,2.49,2.49,0,0,1-.89.69,2.88,2.88,0,0,1-1.24.25,3.09,3.09,0,0,1-.51,0A2.85,2.85,0,0,1,25,21.38a2.16,2.16,0,0,1-.52-0.29A1.63,1.63,0,0,1,24,20.62h0v3.19H23V15.25h1Zm3.67,2.2a2.3,2.3,0,0,0-.35-0.74,1.71,1.71,0,0,0-.6-0.52A1.82,1.82,0,0,0,25.85,16a1.68,1.68,0,0,0-1.46.74,2.23,2.23,0,0,0-.33.75,3.63,3.63,0,0,0,0,1.73,2.18,2.18,0,0,0,.34.75,1.74,1.74,0,0,0,.61.52,1.89,1.89,0,0,0,.9.2,1.74,1.74,0,0,0,.88-0.2A1.64,1.64,0,0,0,27.37,20a2.34,2.34,0,0,0,.31-0.77,4.08,4.08,0,0,0,.1-0.89A3.19,3.19,0,0,0,27.66,17.45Z" transform="translate(-10.04 -12.88)"/><path class="cls-5" d="M35.55,21.43a1.44,1.44,0,0,1-.73.16,0.88,0.88,0,0,1-.63-0.22A1,1,0,0,1,34,20.64a2.44,2.44,0,0,1-1,.73,3.38,3.38,0,0,1-2,.13,1.85,1.85,0,0,1-.65-0.3,1.43,1.43,0,0,1-.44-0.53,1.79,1.79,0,0,1-.16-0.8A1.83,1.83,0,0,1,29.9,19a1.57,1.57,0,0,1,.47-0.55A2.17,2.17,0,0,1,31,18.13q0.38-.11.77-0.18t0.8-.13a4.39,4.39,0,0,0,.67-0.12,1.11,1.11,0,0,0,.46-0.23A0.56,0.56,0,0,0,33.91,17a1,1,0,0,0-.13-0.54,0.87,0.87,0,0,0-.32-0.31A1.32,1.32,0,0,0,33,16a3.37,3.37,0,0,0-.49,0,2.16,2.16,0,0,0-1.08.25,1,1,0,0,0-.47.93H30a2.21,2.21,0,0,1,.24-1,1.83,1.83,0,0,1,.58-0.64,2.43,2.43,0,0,1,.82-0.35,4.35,4.35,0,0,1,1-.11,5.8,5.8,0,0,1,.83.06,2.17,2.17,0,0,1,.75.25,1.43,1.43,0,0,1,.54.52,1.66,1.66,0,0,1,.2.87V20a2.39,2.39,0,0,0,0,.53,0.25,0.25,0,0,0,.28.17,1.25,1.25,0,0,0,.31,0v0.79Zm-1.66-3.18a1.26,1.26,0,0,1-.5.21q-0.31.07-.65,0.11l-0.69.1a2.55,2.55,0,0,0-.62.17,1.12,1.12,0,0,0-.45.34,1,1,0,0,0-.17.6,0.82,0.82,0,0,0,.1.42,0.85,0.85,0,0,0,.26.28,1.12,1.12,0,0,0,.38.16,2.11,2.11,0,0,0,.46,0,2.44,2.44,0,0,0,.86-0.14,1.82,1.82,0,0,0,.59-0.35,1.37,1.37,0,0,0,.34-0.45,1.15,1.15,0,0,0,.11-0.46v-1Z" transform="translate(-10.04 -12.88)"/><path class="cls-5" d="M37.42,15.25v1.31h0a2.77,2.77,0,0,1,.91-1.12,2.3,2.3,0,0,1,1.37-.34v1.08a2.89,2.89,0,0,0-1,.17,1.65,1.65,0,0,0-.7.49,2,2,0,0,0-.38.79,4.23,4.23,0,0,0-.12,1.06v2.76h-1v-6.2h1Z" transform="translate(-10.04 -12.88)"/><path class="cls-5" d="M43.15,15.25v0.9H41.91V20a1.11,1.11,0,0,0,0,.29,0.3,0.3,0,0,0,.11.17,0.5,0.5,0,0,0,.23.08l0.39,0h0.47v0.9H42.37a3.65,3.65,0,0,1-.68-0.05,1,1,0,0,1-.46-0.2A0.85,0.85,0,0,1,41,20.79a2.35,2.35,0,0,1-.08-0.7V16.15H39.83v-0.9h1.06V13.39h1v1.86h1.24Z" transform="translate(-10.04 -12.88)"/><path class="cls-5" d="M45.23,15.25v1h0a2.15,2.15,0,0,1,2-1.13,2.7,2.7,0,0,1,1,.17,1.68,1.68,0,0,1,.66.47,1.74,1.74,0,0,1,.35.71,3.82,3.82,0,0,1,.1.92v4.08h-1v-4.2a1.23,1.23,0,0,0-.34-0.91A1.25,1.25,0,0,0,47.13,16a2.08,2.08,0,0,0-.81.14,1.52,1.52,0,0,0-.57.41,1.76,1.76,0,0,0-.34.62,2.51,2.51,0,0,0-.11.77v3.5h-1v-6.2h1Z" transform="translate(-10.04 -12.88)"/><path class="cls-5" d="M55.34,21.06a2.82,2.82,0,0,1-1.75.53,3.19,3.19,0,0,1-1.29-.24,2.54,2.54,0,0,1-.92-0.67,2.86,2.86,0,0,1-.56-1,5,5,0,0,1-.21-1.31,3.73,3.73,0,0,1,.22-1.3,3.1,3.1,0,0,1,.61-1,2.74,2.74,0,0,1,.92-0.67,2.82,2.82,0,0,1,1.17-.24,2.55,2.55,0,0,1,1.37.34,2.73,2.73,0,0,1,.88.87,3.45,3.45,0,0,1,.46,1.15,4.93,4.93,0,0,1,.1,1.19H51.69a2.46,2.46,0,0,0,.1.77,1.75,1.75,0,0,0,.35.65,1.72,1.72,0,0,0,.61.45,2.12,2.12,0,0,0,.88.17,1.76,1.76,0,0,0,1.06-.3,1.45,1.45,0,0,0,.55-0.91h1A2.48,2.48,0,0,1,55.34,21.06Zm-0.25-4a1.74,1.74,0,0,0-.37-0.56,1.77,1.77,0,0,0-.55-0.37,1.75,1.75,0,0,0-.7-0.14,1.78,1.78,0,0,0-.71.14,1.65,1.65,0,0,0-.55.38,1.81,1.81,0,0,0-.36.56,2.12,2.12,0,0,0-.16.68h3.56A2.09,2.09,0,0,0,55.09,17.07Z" transform="translate(-10.04 -12.88)"/><path class="cls-5" d="M58.31,15.25v1.31h0a2.77,2.77,0,0,1,.91-1.12,2.3,2.3,0,0,1,1.37-.34v1.08a2.89,2.89,0,0,0-1,.17,1.65,1.65,0,0,0-.7.49,2,2,0,0,0-.38.79,4.23,4.23,0,0,0-.12,1.06v2.76h-1v-6.2h1Z" transform="translate(-10.04 -12.88)"/><path class="cls-5" d="M62.17,20.06a1.08,1.08,0,0,0,.38.37,1.69,1.69,0,0,0,.53.2,3,3,0,0,0,.61.06,3.74,3.74,0,0,0,.5,0,1.86,1.86,0,0,0,.49-0.13A0.91,0.91,0,0,0,65,20.25a0.75,0.75,0,0,0,.14-0.47,0.68,0.68,0,0,0-.3-0.6,2.53,2.53,0,0,0-.75-0.33q-0.45-.13-1-0.23a5,5,0,0,1-1-.29,2,2,0,0,1-.75-0.52,1.36,1.36,0,0,1-.3-0.94,1.48,1.48,0,0,1,.21-0.8,1.71,1.71,0,0,1,.54-0.55,2.49,2.49,0,0,1,.74-0.31,3.43,3.43,0,0,1,.82-0.1,4.91,4.91,0,0,1,1,.09,2.25,2.25,0,0,1,.79.31,1.62,1.62,0,0,1,.55.6A2.32,2.32,0,0,1,66,17H65a1,1,0,0,0-.49-0.82A1.52,1.52,0,0,0,64,16.06a2.31,2.31,0,0,0-.5-0.05,3,3,0,0,0-.46,0,1.56,1.56,0,0,0-.43.13,0.85,0.85,0,0,0-.31.24,0.61,0.61,0,0,0-.12.39,0.57,0.57,0,0,0,.19.44,1.49,1.49,0,0,0,.47.29,4.17,4.17,0,0,0,.65.19l0.72,0.16q0.38,0.08.75,0.2a2.46,2.46,0,0,1,.65.32,1.56,1.56,0,0,1,.46.5,1.47,1.47,0,0,1,.17.74,1.73,1.73,0,0,1-.23.94,1.83,1.83,0,0,1-.61.6,2.57,2.57,0,0,1-.85.32,5,5,0,0,1-.94.09,4.34,4.34,0,0,1-1-.11,2.41,2.41,0,0,1-.83-0.35,1.81,1.81,0,0,1-.58-0.65,2.25,2.25,0,0,1-.24-1h1A1.15,1.15,0,0,0,62.17,20.06Z" transform="translate(-10.04 -12.88)"/><path class="cls-5" d="M68.41,12.88v3.28h0a1.35,1.35,0,0,1,.34-0.49,1.9,1.9,0,0,1,.49-0.32,2.53,2.53,0,0,1,.56-0.19,2.84,2.84,0,0,1,.57-0.06,2.7,2.7,0,0,1,1,.17,1.68,1.68,0,0,1,.66.47,1.73,1.73,0,0,1,.35.71,3.82,3.82,0,0,1,.1.92v4.08h-1v-4.2a1.23,1.23,0,0,0-.34-0.91A1.25,1.25,0,0,0,70.24,16a2.08,2.08,0,0,0-.81.14,1.52,1.52,0,0,0-.57.41,1.74,1.74,0,0,0-.34.62,2.51,2.51,0,0,0-.11.77v3.5h-1V12.88h1Z" transform="translate(-10.04 -12.88)"/><path class="cls-5" d="M74.12,14.13V12.88h1v1.25h-1Zm1,1.12v6.2h-1v-6.2h1Z" transform="translate(-10.04 -12.88)"/><path class="cls-5" d="M77.78,15.25v0.84h0a1.53,1.53,0,0,1,.79-0.75,3,3,0,0,1,1.19-.23,2.8,2.8,0,0,1,1.25.26,2.55,2.55,0,0,1,.89.71,3.16,3.16,0,0,1,.53,1,4.24,4.24,0,0,1,.18,1.25,4.37,4.37,0,0,1-.17,1.25,3,3,0,0,1-.53,1,2.49,2.49,0,0,1-.89.69,2.88,2.88,0,0,1-1.24.25,3.1,3.1,0,0,1-.51,0,2.86,2.86,0,0,1-.56-0.16,2.17,2.17,0,0,1-.52-0.29,1.64,1.64,0,0,1-.41-0.46h0v3.19h-1V15.25h1Zm3.67,2.2a2.29,2.29,0,0,0-.35-0.74,1.7,1.7,0,0,0-.6-0.52A1.82,1.82,0,0,0,79.64,16a1.68,1.68,0,0,0-1.46.74,2.26,2.26,0,0,0-.33.75,3.63,3.63,0,0,0-.1.85,3.56,3.56,0,0,0,.11.88,2.16,2.16,0,0,0,.34.75,1.73,1.73,0,0,0,.61.52,1.89,1.89,0,0,0,.9.2,1.74,1.74,0,0,0,.88-0.2A1.64,1.64,0,0,0,81.15,20a2.34,2.34,0,0,0,.31-0.77,4.05,4.05,0,0,0,.1-0.89A3.16,3.16,0,0,0,81.44,17.45Z" transform="translate(-10.04 -12.88)"/><path class="cls-5" d="M92.24,21.45L91,16.52h0l-1.25,4.93H88.6l-2-6.2h1.13l1.4,5.08h0l1.25-5.08h1.12l1.3,5.08h0l1.39-5.08H95.3l-2,6.2H92.24Z" transform="translate(-10.04 -12.88)"/><path class="cls-5" d="M96.33,14.13V12.88h1v1.25h-1Zm1,1.12v6.2h-1v-6.2h1Z" transform="translate(-10.04 -12.88)"/><path class="cls-5" d="M101.58,15.25v0.9h-1.24V20a1.13,1.13,0,0,0,0,.29,0.29,0.29,0,0,0,.11.17,0.5,0.5,0,0,0,.23.08l0.39,0h0.47v0.9H100.8a3.65,3.65,0,0,1-.68-0.05,1,1,0,0,1-.46-0.2,0.84,0.84,0,0,1-.26-0.41,2.37,2.37,0,0,1-.08-0.7V16.15H98.27v-0.9h1.06V13.39h1v1.86h1.24Z" transform="translate(-10.04 -12.88)"/><path class="cls-5" d="M103.73,12.88v3.28h0a1.35,1.35,0,0,1,.34-0.49,1.9,1.9,0,0,1,.49-0.32,2.53,2.53,0,0,1,.56-0.19,2.84,2.84,0,0,1,.57-0.06,2.7,2.7,0,0,1,1,.17,1.68,1.68,0,0,1,.66.47,1.73,1.73,0,0,1,.35.71,3.82,3.82,0,0,1,.1.92v4.08h-1v-4.2a1.23,1.23,0,0,0-.34-0.91,1.25,1.25,0,0,0-.92-0.34,2.08,2.08,0,0,0-.81.14,1.52,1.52,0,0,0-.57.41,1.74,1.74,0,0,0-.34.62,2.51,2.51,0,0,0-.11.77v3.5h-1V12.88h1Z" transform="translate(-10.04 -12.88)"/></svg>
